<!DOCTYPE svg PUBLIC "-//W3C//DTD SVG 1.1//EN" "http://www.w3.org/Graphics/SVG/1.1/DTD/svg11.dtd">
<!-- Uploaded to: SVG Repo, www.svgrepo.com, Transformed by: SVG Repo Mixer Tools -->
<svg xmlns:dc="http://purl.org/dc/elements/1.1/" xmlns:cc="http://creativecommons.org/ns#" xmlns:rdf="http://www.w3.org/1999/02/22-rdf-syntax-ns#" xmlns:svg="http://www.w3.org/2000/svg" xmlns="http://www.w3.org/2000/svg" xmlns:sodipodi="http://sodipodi.sourceforge.net/DTD/sodipodi-0.dtd" xmlns:inkscape="http://www.inkscape.org/namespaces/inkscape" width="800px" height="800px" viewBox="0 0 30 30" version="1.1" id="svg822" inkscape:version="0.92.4 (f8dce91, 2019-08-02)" sodipodi:docname="flip-camera.svg" fill="#000000" transform="rotate(270)">
<g id="SVGRepo_bgCarrier" stroke-width="0"/>
<g id="SVGRepo_tracerCarrier" stroke-linecap="round" stroke-linejoin="round"/>
<g id="SVGRepo_iconCarrier"> <defs id="defs816"> <inkscape:path-effect only_selected="false" apply_with_weight="true" apply_no_weight="true" helper_size="0" steps="2" weight="33.333333" is_visible="true" id="path-effect1025" effect="bspline"/> <inkscape:path-effect only_selected="false" apply_with_weight="true" apply_no_weight="true" helper_size="0" steps="2" weight="33.333333" is_visible="true" id="path-effect1021" effect="bspline"/> </defs> <sodipodi:namedview id="base" pagecolor="#ffffff" bordercolor="#666666" borderopacity="1.0" inkscape:pageopacity="0.0" inkscape:pageshadow="2" inkscape:zoom="17.833333" inkscape:cx="15" inkscape:cy="15" inkscape:document-units="px" inkscape:current-layer="layer1" showgrid="true" units="px" inkscape:window-width="1366" inkscape:window-height="713" inkscape:window-x="0" inkscape:window-y="0" inkscape:window-maximized="1" showguides="false" inkscape:guide-bbox="true"> <sodipodi:guide position="21.126168,22.794393" orientation="1,0" id="guide1575" inkscape:locked="false"/> <sodipodi:guide position="22.682243,23.285047" orientation="1,0" id="guide1635" inkscape:locked="false"/> <sodipodi:guide position="22.682243,7.6455921" orientation="0,1" id="guide1639" inkscape:locked="false"/> <sodipodi:guide position="18.859863,18.859863" orientation="1,0" id="guide1242" inkscape:locked="false"/> <inkscape:grid type="xygrid" id="grid1103"/> </sodipodi:namedview> <metadata id="metadata819"> <rdf:rdf> <cc:work rdf:about=""> <dc:format>image/svg+xml</dc:format> <dc:type rdf:resource="http://purl.org/dc/dcmitype/StillImage"/> <dc:title> </dc:title> </cc:work> </rdf:rdf> </metadata> <g inkscape:label="Layer 1" inkscape:groupmode="layer" id="layer1" transform="translate(0,-289.0625)"> <path style="display:inline;fill:#000000;fill-opacity:1;stroke:none;stroke-width:0.5;stroke-miterlimit:4;stroke-dasharray:none;stroke-opacity:1" d="M 5 5 C 3.8920001 5 3 5.892 3 7 L 3 23 C 3 24.108 3.8920001 25 5 25 L 25 25 C 26.108 25 27 24.108 27 23 L 27 7 C 27 5.892 26.108 5 25 5 L 5 5 z M 15 8.6289062 C 18.509998 8.6289062 21.371094 11.490003 21.371094 15 L 23.5 15 L 20.666016 18.541016 L 17.833984 15 L 19.955078 15 C 19.955078 12.255626 17.744375 10.044922 15 10.044922 C 14.416076 10.044922 13.85923 10.150037 13.339844 10.333984 L 12.261719 9.2578125 C 13.092757 8.8594671 14.019406 8.6289062 15 8.6289062 z M 9.3339844 11.458984 L 12.166016 15 L 10.044922 15 C 10.044922 17.744374 12.255625 19.955078 15 19.955078 C 15.583924 19.955078 16.14077 19.849963 16.660156 19.666016 L 17.738281 20.742188 C 16.907243 21.140533 15.980594 21.371094 15 21.371094 C 11.490002 21.371094 8.6289063 18.509997 8.6289062 15 L 6.5 15 L 9.3339844 11.458984 z " transform="translate(0,289.0625)" id="rect1719"/> <g id="layer1-3" inkscape:label="Layer 1" style="fill:#ffffff;stroke-width:1.41176474" transform="matrix(0.70833333,0,0,0.70833333,4.3750001,88.684897)"/> </g> </g>
</svg>